<svg xmlns="http://www.w3.org/2000/svg" width="400" height="200" viewBox="0 0 400 200"><rect width="100%" height="100%" fill="#5C6BC0"/><path fill="#FFFFFF" d="M80.52 88.68v7.88h.82q.49 0 .82-.14.32-.13.56-.43l5.19-6.57q.32-.41.68-.58.36-.16.9-.16h3.02l-6.33 7.81q-.56.72-1.16 1.02.43.15.77.43.35.28.66.74l6.53 8.8h-3.09q-.62 0-.92-.18-.31-.17-.52-.51l-5.32-6.94q-.24-.35-.57-.5-.32-.14-.93-.14h-1.11v8.27h-3.5v-18.8zm20.87 15.35v-2.24q-1.39.06-2.34.24-.95.17-1.52.44-.58.28-.82.64-.25.37-.25.79 0 .85.5 1.21.5.37 1.31.37.98 0 1.71-.36.72-.36 1.41-1.09m-6.79-7L94.03 96q2.3-2.11 5.54-2.11 1.17 0 2.09.39.92.38 1.56 1.06.64.69.97 1.64.33.94.33 2.08v8.42h-1.46q-.45 0-.7-.14-.25-.13-.39-.55l-.28-.96q-.51.45-.99.8-.48.34-1 .58-.52.23-1.11.35-.6.13-1.31.13-.85 0-1.56-.23-.72-.23-1.24-.68-.52-.46-.8-1.13-.29-.68-.29-1.58 0-.5.17-1t.55-.96q.39-.45 1-.86.61-.4 1.5-.7t2.07-.49q1.19-.19 2.71-.22v-.78q0-1.34-.58-1.99-.57-.64-1.65-.64-.78 0-1.29.18t-.9.41-.71.41-.71.18q-.34 0-.57-.17-.24-.18-.38-.41m29.54-2.89h2.44l-4.24 13.34h-2.57q-.44 0-.61-.57l-2.39-7.71q-.12-.39-.22-.77-.1-.39-.16-.78-.08.39-.18.79-.09.39-.21.78l-2.43 7.69q-.16.57-.69.57h-2.47l-4.23-13.34h2.56q.36 0 .6.17.25.17.33.43l1.91 7.12q.14.59.25 1.15t.19 1.12q.14-.56.31-1.12.16-.56.34-1.15l2.21-7.15q.08-.26.31-.43.22-.16.55-.16h1.42q.33 0 .57.16.24.17.32.43l2.15 7.15q.17.59.32 1.15.15.57.29 1.13.17-1.11.48-2.28l1.96-7.12q.09-.26.33-.43.23-.17.56-.17m8.71 13.55q-1.75 0-2.67-.98-.93-.99-.93-2.71v-7.45h-1.37q-.26 0-.44-.17t-.18-.51V94.6l2.14-.35.68-3.64q.06-.26.24-.41.19-.14.47-.14h1.67v4.2h3.56v2.29h-3.56v7.22q0 .63.3.98.31.35.84.35.3 0 .5-.07t.35-.15.27-.15.23-.07q.15 0 .24.07t.19.21l.96 1.56q-.7.59-1.61.89t-1.88.3m12.27-3.66v-2.24q-1.39.06-2.34.24-.95.17-1.52.44-.57.28-.82.64-.25.37-.25.79 0 .85.5 1.21.5.37 1.31.37.99 0 1.71-.36t1.41-1.09m-6.79-7-.57-1.03q2.3-2.11 5.54-2.11 1.17 0 2.09.39.92.38 1.56 1.06.64.69.97 1.64.33.94.33 2.08v8.42h-1.45q-.46 0-.71-.14-.24-.13-.39-.55l-.28-.96q-.51.45-.99.8-.48.34-1 .58-.52.23-1.11.35-.59.13-1.31.13-.84 0-1.56-.23-.71-.23-1.23-.68-.52-.46-.81-1.13-.29-.68-.29-1.58 0-.5.17-1t.56-.96q.38-.45.99-.86.61-.4 1.5-.7t2.07-.49q1.19-.19 2.71-.22v-.78q0-1.34-.57-1.99-.58-.64-1.65-.64-.78 0-1.3.18-.51.18-.9.41t-.71.41-.71.18q-.34 0-.57-.17-.23-.18-.38-.41m15.77-2.08.2 1.51q.62-1.2 1.48-1.88.86-.69 2.03-.69.92 0 1.48.41l-.21 2.4q-.06.24-.19.33-.12.1-.33.1-.19 0-.58-.06-.38-.07-.75-.07-.53 0-.94.16-.42.15-.75.45-.33.29-.59.7-.25.42-.47.95v8.22h-3.21V94.14h1.88q.5 0 .69.18.2.17.26.63m30.38 3.13q0 2.07-.69 3.8t-1.93 2.97q-1.25 1.25-3.01 1.94-1.75.69-3.9.69h-7.16v-18.8h7.16q2.15 0 3.9.7 1.76.69 3.01 1.93 1.24 1.25 1.93 2.97.69 1.73.69 3.8m-3.59 0q0-1.55-.4-2.77-.41-1.23-1.19-2.08-.77-.86-1.87-1.31-1.1-.46-2.48-.46h-3.65v13.24h3.65q1.38 0 2.48-.46 1.1-.45 1.87-1.3.78-.86 1.19-2.08.4-1.23.4-2.78m8.7 1.2h6.06q0-.63-.18-1.18-.17-.55-.52-.97-.35-.41-.89-.65-.54-.25-1.26-.25-1.39 0-2.19.8-.8.79-1.02 2.25m8.19 1.93h-8.25q.07 1.03.36 1.78t.75 1.23q.47.49 1.12.73.64.24 1.42.24t1.35-.18q.56-.18.98-.4.43-.22.74-.41.32-.18.62-.18.4 0 .6.3l.92 1.17q-.53.62-1.19 1.05-.67.42-1.39.67-.72.26-1.47.36-.74.11-1.45.11-1.39 0-2.58-.47-1.2-.46-2.08-1.36-.89-.91-1.39-2.24-.51-1.33-.51-3.09 0-1.36.44-2.56.44-1.21 1.27-2.1.82-.89 2.01-1.41t2.69-.52q1.26 0 2.32.41 1.07.4 1.84 1.17.76.78 1.2 1.9.44 1.13.44 2.57 0 .73-.16.98t-.6.25m12.65-7.07h2.54l-5.3 13.34h-2.91l-5.29-13.34h2.65q.37 0 .61.17t.32.43l2.57 7.12q.21.63.36 1.23.16.59.28 1.19.13-.6.28-1.19.16-.6.38-1.23l2.63-7.12q.09-.26.32-.43.24-.17.56-.17m6.77 5.14h6.06q0-.63-.17-1.18-.18-.55-.53-.97-.35-.41-.89-.65-.54-.25-1.26-.25-1.39 0-2.19.8-.8.79-1.02 2.25m8.19 1.93h-8.25q.08 1.03.36 1.78.29.75.76 1.23.46.49 1.11.73.64.24 1.42.24t1.35-.18q.56-.18.99-.4.42-.22.74-.41.31-.18.61-.18.41 0 .6.3l.92 1.17q-.53.62-1.19 1.05-.66.42-1.39.67-.72.26-1.46.36-.75.11-1.45.11-1.4 0-2.59-.47-1.2-.46-2.08-1.36-.89-.91-1.39-2.24-.51-1.33-.51-3.09 0-1.36.44-2.56.44-1.21 1.27-2.1t2.02-1.41q1.18-.52 2.68-.52 1.26 0 2.33.41 1.06.4 1.83 1.17.77.78 1.2 1.9.44 1.13.44 2.57 0 .73-.16.98-.15.25-.6.25m3.2-13.05h3.21v19.32h-3.21zm12.33 5.77q1.48 0 2.69.48 1.22.49 2.08 1.37.87.88 1.34 2.16.46 1.27.46 2.84 0 1.59-.46 2.86-.47 1.28-1.34 2.18-.86.89-2.08 1.37-1.21.49-2.69.49-1.5 0-2.72-.49-1.22-.48-2.09-1.37-.86-.9-1.34-2.18-.47-1.27-.47-2.86 0-1.57.47-2.84.48-1.28 1.34-2.16.87-.88 2.09-1.37 1.22-.48 2.72-.48m0 11.27q1.66 0 2.46-1.11.8-1.12.8-3.28t-.8-3.29-2.46-1.13q-1.69 0-2.51 1.14-.81 1.14-.81 3.28 0 2.15.81 3.27.82 1.12 2.51 1.12m12.24-7.16v5.98q.55.66 1.19.94.64.27 1.4.27.73 0 1.31-.27.59-.28 1-.83.41-.56.63-1.41.22-.86.22-2.01 0-1.17-.19-1.99-.19-.81-.54-1.32-.35-.5-.85-.74-.5-.23-1.14-.23-1 0-1.7.42t-1.33 1.19m-.43-3.31.26 1.23q.82-.92 1.86-1.49 1.04-.58 2.45-.58 1.09 0 1.99.46.9.45 1.56 1.32.66.86 1.02 2.13.35 1.27.35 2.91 0 1.49-.4 2.77-.4 1.27-1.15 2.21-.75.93-1.81 1.46t-2.37.53q-1.12 0-1.91-.35-.79-.34-1.42-.96v5.47h-3.21v-17.7h1.96q.63 0 .82.59m15.2 12.75h-3.21V94.14h1.96q.63 0 .82.59l.21.98q.35-.39.73-.71.39-.33.82-.56.44-.23.94-.37t1.1-.14q1.26 0 2.07.69.81.68 1.22 1.81.31-.66.78-1.14.46-.47 1.02-.77t1.19-.44q.63-.15 1.27-.15 1.1 0 1.96.34t1.45.99q.58.65.89 1.59.3.93.3 2.14v8.49h-3.21v-8.49q0-1.27-.56-1.92-.56-.64-1.64-.64-.49 0-.91.17-.43.17-.74.49-.32.31-.5.8-.19.48-.19 1.1v8.49h-3.22v-8.49q0-1.34-.54-1.95t-1.58-.61q-.7 0-1.31.34-.6.35-1.12.95zm21.1-8.2h6.06q0-.63-.18-1.18-.17-.55-.53-.97-.35-.41-.89-.65-.54-.25-1.25-.25-1.39 0-2.19.8-.8.79-1.02 2.25m8.19 1.93h-8.26q.08 1.03.37 1.78.28.75.75 1.23.47.49 1.11.73.65.24 1.43.24t1.34-.18q.57-.18.99-.4t.74-.41q.32-.18.62-.18.4 0 .6.3l.92 1.17q-.53.62-1.2 1.05-.66.42-1.38.67-.72.26-1.47.36-.75.11-1.45.11-1.39 0-2.59-.47-1.19-.46-2.08-1.36-.88-.91-1.39-2.24-.5-1.33-.5-3.09 0-1.36.44-2.56.44-1.21 1.27-2.1.82-.89 2.01-1.41t2.68-.52q1.27 0 2.33.41 1.07.4 1.83 1.17.77.78 1.21 1.9.43 1.13.43 2.57 0 .73-.15.98-.16.25-.6.25m5.94-6.48.22 1.05q.4-.4.85-.75.45-.34.95-.58t1.07-.38q.58-.14 1.25-.14 1.09 0 1.94.37.84.37 1.41 1.04.56.67.86 1.6.29.93.29 2.05v8.49h-3.21v-8.49q0-1.22-.56-1.89t-1.7-.67q-.84 0-1.56.38-.73.37-1.38 1.02v9.65h-3.21V94.14h1.96q.62 0 .82.59m16.33 12.96q-1.74 0-2.67-.98-.93-.99-.93-2.71v-7.45h-1.37q-.26 0-.44-.17t-.18-.51V94.6l2.14-.35.68-3.64q.06-.26.25-.41.18-.14.46-.14h1.67v4.2h3.56v2.29h-3.56v7.22q0 .63.3.98.31.35.84.35.3 0 .5-.07t.35-.15.27-.15.23-.07q.15 0 .24.07t.19.21l.96 1.56q-.7.59-1.61.89t-1.88.3"/></svg>